<?xml version="1.0" encoding="UTF-8"?>
<svg xmlns="http://www.w3.org/2000/svg" xmlns:xlink="http://www.w3.org/1999/xlink" width="444pt" height="391pt" viewBox="0 0 444 391" version="1.1">
<g id="surface1">
<path style="fill:none;stroke-width:0.4;stroke-linecap:butt;stroke-linejoin:round;stroke:rgb(0%,0%,0%);stroke-opacity:1;stroke-miterlimit:10;" d="M 287.999344 767.998092 L 66.296219 383.998092 L 509.702469 383.998092 Z M 287.999344 767.998092 " transform="matrix(1,0,0,-1,-66.097,774.669967)"/>
<path style="fill:none;stroke-width:0.4;stroke-linecap:butt;stroke-linejoin:round;stroke:rgb(0%,0%,0%);stroke-opacity:1;stroke-miterlimit:10;" d="M 287.999344 767.998092 L 66.296219 383.998092 L 509.702469 383.998092 Z M 287.999344 767.998092 " transform="matrix(1,0,0,-1,-66.097,774.669967)"/>
<path style="fill:none;stroke-width:0.4;stroke-linecap:butt;stroke-linejoin:round;stroke:rgb(0%,0%,0%);stroke-opacity:1;stroke-miterlimit:10;" d="M 287.999344 767.998092 L 66.296219 383.998092 L 509.702469 383.998092 Z M 287.999344 767.998092 " transform="matrix(1,0,0,-1,-66.097,774.669967)"/>
<path style="fill:none;stroke-width:0.4;stroke-linecap:butt;stroke-linejoin:round;stroke:rgb(0%,0%,0%);stroke-opacity:1;stroke-miterlimit:10;" d="M 287.999344 767.998092 L 66.296219 383.998092 L 509.702469 383.998092 Z M 287.999344 767.998092 " transform="matrix(1,0,0,-1,-66.097,774.669967)"/>
<path style="fill:none;stroke-width:0.4;stroke-linecap:butt;stroke-linejoin:round;stroke:rgb(0%,0%,0%);stroke-opacity:1;stroke-miterlimit:10;" d="M 287.999344 767.998092 L 66.296219 383.998092 L 509.702469 383.998092 Z M 287.999344 767.998092 " transform="matrix(1,0,0,-1,-66.097,774.669967)"/>
<path style="fill:none;stroke-width:0.4;stroke-linecap:butt;stroke-linejoin:round;stroke:rgb(0%,0%,0%);stroke-opacity:1;stroke-miterlimit:10;" d="M 287.999344 767.998092 L 177.147781 575.998092 L 398.850906 575.998092 Z M 287.999344 767.998092 " transform="matrix(1,0,0,-1,-66.097,774.669967)"/>
<path style="fill:none;stroke-width:0.4;stroke-linecap:butt;stroke-linejoin:round;stroke:rgb(0%,0%,0%);stroke-opacity:1;stroke-miterlimit:10;" d="M 177.151688 575.998092 L 66.300125 383.998092 L 288.00325 383.998092 Z M 177.151688 575.998092 " transform="matrix(1,0,0,-1,-66.097,774.669967)"/>
<path style="fill:none;stroke-width:0.4;stroke-linecap:butt;stroke-linejoin:round;stroke:rgb(0%,0%,0%);stroke-opacity:1;stroke-miterlimit:10;" d="M 398.847 575.998092 L 287.995438 383.998092 L 509.698563 383.998092 Z M 398.847 575.998092 " transform="matrix(1,0,0,-1,-66.097,774.669967)"/>
<path style="fill:none;stroke-width:0.4;stroke-linecap:butt;stroke-linejoin:round;stroke:rgb(0%,0%,0%);stroke-opacity:1;stroke-miterlimit:10;" d="M 287.999344 767.998092 L 66.296219 383.998092 L 509.702469 383.998092 Z M 287.999344 767.998092 " transform="matrix(1,0,0,-1,-66.097,774.669967)"/>
<path style="fill:none;stroke-width:0.4;stroke-linecap:butt;stroke-linejoin:round;stroke:rgb(0%,0%,0%);stroke-opacity:1;stroke-miterlimit:10;" d="M 287.999344 767.998092 L 66.296219 383.998092 L 509.702469 383.998092 Z M 287.999344 767.998092 " transform="matrix(1,0,0,-1,-66.097,774.669967)"/>
<path style="fill:none;stroke-width:0.4;stroke-linecap:butt;stroke-linejoin:round;stroke:rgb(0%,0%,0%);stroke-opacity:1;stroke-miterlimit:10;" d="M 287.999344 767.998092 L 66.296219 383.998092 L 509.702469 383.998092 Z M 287.999344 767.998092 " transform="matrix(1,0,0,-1,-66.097,774.669967)"/>
<path style="fill:none;stroke-width:0.4;stroke-linecap:butt;stroke-linejoin:round;stroke:rgb(0%,0%,0%);stroke-opacity:1;stroke-miterlimit:10;" d="M 287.999344 767.998092 L 66.296219 383.998092 L 509.702469 383.998092 Z M 287.999344 767.998092 " transform="matrix(1,0,0,-1,-66.097,774.669967)"/>
<path style="fill:none;stroke-width:0.4;stroke-linecap:butt;stroke-linejoin:round;stroke:rgb(0%,0%,0%);stroke-opacity:1;stroke-miterlimit:10;" d="M 287.999344 767.998092 L 177.147781 575.998092 L 398.850906 575.998092 Z M 287.999344 767.998092 " transform="matrix(1,0,0,-1,-66.097,774.669967)"/>
<path style="fill:none;stroke-width:0.4;stroke-linecap:butt;stroke-linejoin:round;stroke:rgb(0%,0%,0%);stroke-opacity:1;stroke-miterlimit:10;" d="M 177.151688 575.998092 L 66.300125 383.998092 L 288.00325 383.998092 Z M 177.151688 575.998092 " transform="matrix(1,0,0,-1,-66.097,774.669967)"/>
<path style="fill:none;stroke-width:0.4;stroke-linecap:butt;stroke-linejoin:round;stroke:rgb(0%,0%,0%);stroke-opacity:1;stroke-miterlimit:10;" d="M 398.847 575.998092 L 287.995438 383.998092 L 509.698563 383.998092 Z M 398.847 575.998092 " transform="matrix(1,0,0,-1,-66.097,774.669967)"/>
<path style="fill:none;stroke-width:0.4;stroke-linecap:butt;stroke-linejoin:round;stroke:rgb(0%,0%,0%);stroke-opacity:1;stroke-miterlimit:10;" d="M 287.999344 767.998092 L 66.296219 383.998092 L 509.702469 383.998092 Z M 287.999344 767.998092 " transform="matrix(1,0,0,-1,-66.097,774.669967)"/>
<path style="fill:none;stroke-width:0.4;stroke-linecap:butt;stroke-linejoin:round;stroke:rgb(0%,0%,0%);stroke-opacity:1;stroke-miterlimit:10;" d="M 287.999344 767.998092 L 66.296219 383.998092 L 509.702469 383.998092 Z M 287.999344 767.998092 " transform="matrix(1,0,0,-1,-66.097,774.669967)"/>
<path style="fill:none;stroke-width:0.4;stroke-linecap:butt;stroke-linejoin:round;stroke:rgb(0%,0%,0%);stroke-opacity:1;stroke-miterlimit:10;" d="M 287.999344 767.998092 L 66.296219 383.998092 L 509.702469 383.998092 Z M 287.999344 767.998092 " transform="matrix(1,0,0,-1,-66.097,774.669967)"/>
<path style="fill:none;stroke-width:0.4;stroke-linecap:butt;stroke-linejoin:round;stroke:rgb(0%,0%,0%);stroke-opacity:1;stroke-miterlimit:10;" d="M 287.999344 767.998092 L 177.147781 575.998092 L 398.850906 575.998092 Z M 287.999344 767.998092 " transform="matrix(1,0,0,-1,-66.097,774.669967)"/>
<path style="fill:none;stroke-width:0.4;stroke-linecap:butt;stroke-linejoin:round;stroke:rgb(0%,0%,0%);stroke-opacity:1;stroke-miterlimit:10;" d="M 177.151688 575.998092 L 66.300125 383.998092 L 288.00325 383.998092 Z M 177.151688 575.998092 " transform="matrix(1,0,0,-1,-66.097,774.669967)"/>
<path style="fill:none;stroke-width:0.4;stroke-linecap:butt;stroke-linejoin:round;stroke:rgb(0%,0%,0%);stroke-opacity:1;stroke-miterlimit:10;" d="M 398.847 575.998092 L 287.995438 383.998092 L 509.698563 383.998092 Z M 398.847 575.998092 " transform="matrix(1,0,0,-1,-66.097,774.669967)"/>
<path style="fill:none;stroke-width:0.4;stroke-linecap:butt;stroke-linejoin:round;stroke:rgb(0%,0%,0%);stroke-opacity:1;stroke-miterlimit:10;" d="M 287.999344 767.998092 L 66.296219 383.998092 L 509.702469 383.998092 Z M 287.999344 767.998092 " transform="matrix(1,0,0,-1,-66.097,774.669967)"/>
<path style="fill:none;stroke-width:0.4;stroke-linecap:butt;stroke-linejoin:round;stroke:rgb(0%,0%,0%);stroke-opacity:1;stroke-miterlimit:10;" d="M 287.999344 767.998092 L 66.296219 383.998092 L 509.702469 383.998092 Z M 287.999344 767.998092 " transform="matrix(1,0,0,-1,-66.097,774.669967)"/>
<path style="fill:none;stroke-width:0.4;stroke-linecap:butt;stroke-linejoin:round;stroke:rgb(0%,0%,0%);stroke-opacity:1;stroke-miterlimit:10;" d="M 287.999344 767.998092 L 177.147781 575.998092 L 398.850906 575.998092 Z M 287.999344 767.998092 " transform="matrix(1,0,0,-1,-66.097,774.669967)"/>
<path style="fill:none;stroke-width:0.4;stroke-linecap:butt;stroke-linejoin:round;stroke:rgb(0%,0%,0%);stroke-opacity:1;stroke-miterlimit:10;" d="M 177.151688 575.998092 L 66.300125 383.998092 L 288.00325 383.998092 Z M 177.151688 575.998092 " transform="matrix(1,0,0,-1,-66.097,774.669967)"/>
<path style="fill:none;stroke-width:0.4;stroke-linecap:butt;stroke-linejoin:round;stroke:rgb(0%,0%,0%);stroke-opacity:1;stroke-miterlimit:10;" d="M 398.847 575.998092 L 287.995438 383.998092 L 509.698563 383.998092 Z M 398.847 575.998092 " transform="matrix(1,0,0,-1,-66.097,774.669967)"/>
<path style="fill:none;stroke-width:0.4;stroke-linecap:butt;stroke-linejoin:round;stroke:rgb(0%,0%,0%);stroke-opacity:1;stroke-miterlimit:10;" d="M 287.999344 767.998092 L 66.296219 383.998092 L 509.702469 383.998092 Z M 287.999344 767.998092 " transform="matrix(1,0,0,-1,-66.097,774.669967)"/>
<path style="fill:none;stroke-width:0.4;stroke-linecap:butt;stroke-linejoin:round;stroke:rgb(0%,0%,0%);stroke-opacity:1;stroke-miterlimit:10;" d="M 287.999344 767.998092 L 177.147781 575.998092 L 398.850906 575.998092 Z M 287.999344 767.998092 " transform="matrix(1,0,0,-1,-66.097,774.669967)"/>
<path style="fill:none;stroke-width:0.4;stroke-linecap:butt;stroke-linejoin:round;stroke:rgb(0%,0%,0%);stroke-opacity:1;stroke-miterlimit:10;" d="M 177.151688 575.998092 L 66.300125 383.998092 L 288.00325 383.998092 Z M 177.151688 575.998092 " transform="matrix(1,0,0,-1,-66.097,774.669967)"/>
<path style="fill:none;stroke-width:0.4;stroke-linecap:butt;stroke-linejoin:round;stroke:rgb(0%,0%,0%);stroke-opacity:1;stroke-miterlimit:10;" d="M 398.847 575.998092 L 287.995438 383.998092 L 509.698563 383.998092 Z M 398.847 575.998092 " transform="matrix(1,0,0,-1,-66.097,774.669967)"/>
<path style="fill:none;stroke-width:0.4;stroke-linecap:butt;stroke-linejoin:round;stroke:rgb(0%,0%,0%);stroke-opacity:1;stroke-miterlimit:10;" d="M 287.999344 767.998092 L 177.147781 575.998092 L 398.850906 575.998092 Z M 287.999344 767.998092 " transform="matrix(1,0,0,-1,-66.097,774.669967)"/>
<path style="fill:none;stroke-width:0.4;stroke-linecap:butt;stroke-linejoin:round;stroke:rgb(0%,0%,0%);stroke-opacity:1;stroke-miterlimit:10;" d="M 287.999344 767.998092 L 232.573563 671.998092 L 343.425125 671.998092 Z M 287.999344 767.998092 " transform="matrix(1,0,0,-1,-66.097,774.669967)"/>
<path style="fill:none;stroke-width:0.4;stroke-linecap:butt;stroke-linejoin:round;stroke:rgb(0%,0%,0%);stroke-opacity:1;stroke-miterlimit:10;" d="M 232.577469 671.998092 L 177.151688 575.998092 L 288.00325 575.998092 Z M 232.577469 671.998092 " transform="matrix(1,0,0,-1,-66.097,774.669967)"/>
<path style="fill:none;stroke-width:0.4;stroke-linecap:butt;stroke-linejoin:round;stroke:rgb(0%,0%,0%);stroke-opacity:1;stroke-miterlimit:10;" d="M 343.425125 671.998092 L 287.999344 575.998092 L 398.850906 575.998092 Z M 343.425125 671.998092 " transform="matrix(1,0,0,-1,-66.097,774.669967)"/>
<path style="fill:none;stroke-width:0.4;stroke-linecap:butt;stroke-linejoin:round;stroke:rgb(0%,0%,0%);stroke-opacity:1;stroke-miterlimit:10;" d="M 177.151688 575.998092 L 66.300125 383.998092 L 288.00325 383.998092 Z M 177.151688 575.998092 " transform="matrix(1,0,0,-1,-66.097,774.669967)"/>
<path style="fill:none;stroke-width:0.4;stroke-linecap:butt;stroke-linejoin:round;stroke:rgb(0%,0%,0%);stroke-opacity:1;stroke-miterlimit:10;" d="M 177.151688 575.998092 L 121.725906 479.998092 L 232.577469 479.998092 Z M 177.151688 575.998092 " transform="matrix(1,0,0,-1,-66.097,774.669967)"/>
<path style="fill:none;stroke-width:0.4;stroke-linecap:butt;stroke-linejoin:round;stroke:rgb(0%,0%,0%);stroke-opacity:1;stroke-miterlimit:10;" d="M 121.729813 479.998092 L 66.304031 383.998092 L 177.155594 383.998092 Z M 121.729813 479.998092 " transform="matrix(1,0,0,-1,-66.097,774.669967)"/>
<path style="fill:none;stroke-width:0.4;stroke-linecap:butt;stroke-linejoin:round;stroke:rgb(0%,0%,0%);stroke-opacity:1;stroke-miterlimit:10;" d="M 232.577469 479.998092 L 177.151688 383.998092 L 288.00325 383.998092 Z M 232.577469 479.998092 " transform="matrix(1,0,0,-1,-66.097,774.669967)"/>
<path style="fill:none;stroke-width:0.4;stroke-linecap:butt;stroke-linejoin:round;stroke:rgb(0%,0%,0%);stroke-opacity:1;stroke-miterlimit:10;" d="M 398.847 575.998092 L 287.995438 383.998092 L 509.698563 383.998092 Z M 398.847 575.998092 " transform="matrix(1,0,0,-1,-66.097,774.669967)"/>
<path style="fill:none;stroke-width:0.4;stroke-linecap:butt;stroke-linejoin:round;stroke:rgb(0%,0%,0%);stroke-opacity:1;stroke-miterlimit:10;" d="M 398.847 575.998092 L 343.421219 479.998092 L 454.272781 479.998092 Z M 398.847 575.998092 " transform="matrix(1,0,0,-1,-66.097,774.669967)"/>
<path style="fill:none;stroke-width:0.4;stroke-linecap:butt;stroke-linejoin:round;stroke:rgb(0%,0%,0%);stroke-opacity:1;stroke-miterlimit:10;" d="M 343.425125 479.998092 L 287.999344 383.998092 L 398.850906 383.998092 Z M 343.425125 479.998092 " transform="matrix(1,0,0,-1,-66.097,774.669967)"/>
<path style="fill:none;stroke-width:0.4;stroke-linecap:butt;stroke-linejoin:round;stroke:rgb(0%,0%,0%);stroke-opacity:1;stroke-miterlimit:10;" d="M 454.272781 479.998092 L 398.847 383.998092 L 509.698563 383.998092 Z M 454.272781 479.998092 " transform="matrix(1,0,0,-1,-66.097,774.669967)"/>
<path style="fill:none;stroke-width:0.4;stroke-linecap:butt;stroke-linejoin:round;stroke:rgb(0%,0%,0%);stroke-opacity:1;stroke-miterlimit:10;" d="M 287.999344 767.998092 L 66.296219 383.998092 L 509.702469 383.998092 Z M 287.999344 767.998092 " transform="matrix(1,0,0,-1,-66.097,774.669967)"/>
<path style="fill:none;stroke-width:0.4;stroke-linecap:butt;stroke-linejoin:round;stroke:rgb(0%,0%,0%);stroke-opacity:1;stroke-miterlimit:10;" d="M 287.999344 767.998092 L 66.296219 383.998092 L 509.702469 383.998092 Z M 287.999344 767.998092 " transform="matrix(1,0,0,-1,-66.097,774.669967)"/>
<path style="fill:none;stroke-width:0.4;stroke-linecap:butt;stroke-linejoin:round;stroke:rgb(0%,0%,0%);stroke-opacity:1;stroke-miterlimit:10;" d="M 287.999344 767.998092 L 66.296219 383.998092 L 509.702469 383.998092 Z M 287.999344 767.998092 " transform="matrix(1,0,0,-1,-66.097,774.669967)"/>
<path style="fill:none;stroke-width:0.4;stroke-linecap:butt;stroke-linejoin:round;stroke:rgb(0%,0%,0%);stroke-opacity:1;stroke-miterlimit:10;" d="M 287.999344 767.998092 L 66.296219 383.998092 L 509.702469 383.998092 Z M 287.999344 767.998092 " transform="matrix(1,0,0,-1,-66.097,774.669967)"/>
<path style="fill:none;stroke-width:0.4;stroke-linecap:butt;stroke-linejoin:round;stroke:rgb(0%,0%,0%);stroke-opacity:1;stroke-miterlimit:10;" d="M 287.999344 767.998092 L 177.147781 575.998092 L 398.850906 575.998092 Z M 287.999344 767.998092 " transform="matrix(1,0,0,-1,-66.097,774.669967)"/>
<path style="fill:none;stroke-width:0.4;stroke-linecap:butt;stroke-linejoin:round;stroke:rgb(0%,0%,0%);stroke-opacity:1;stroke-miterlimit:10;" d="M 177.151688 575.998092 L 66.300125 383.998092 L 288.00325 383.998092 Z M 177.151688 575.998092 " transform="matrix(1,0,0,-1,-66.097,774.669967)"/>
<path style="fill:none;stroke-width:0.4;stroke-linecap:butt;stroke-linejoin:round;stroke:rgb(0%,0%,0%);stroke-opacity:1;stroke-miterlimit:10;" d="M 398.847 575.998092 L 287.995438 383.998092 L 509.698563 383.998092 Z M 398.847 575.998092 " transform="matrix(1,0,0,-1,-66.097,774.669967)"/>
<path style="fill:none;stroke-width:0.4;stroke-linecap:butt;stroke-linejoin:round;stroke:rgb(0%,0%,0%);stroke-opacity:1;stroke-miterlimit:10;" d="M 287.999344 767.998092 L 66.296219 383.998092 L 509.702469 383.998092 Z M 287.999344 767.998092 " transform="matrix(1,0,0,-1,-66.097,774.669967)"/>
<path style="fill:none;stroke-width:0.4;stroke-linecap:butt;stroke-linejoin:round;stroke:rgb(0%,0%,0%);stroke-opacity:1;stroke-miterlimit:10;" d="M 287.999344 767.998092 L 66.296219 383.998092 L 509.702469 383.998092 Z M 287.999344 767.998092 " transform="matrix(1,0,0,-1,-66.097,774.669967)"/>
<path style="fill:none;stroke-width:0.4;stroke-linecap:butt;stroke-linejoin:round;stroke:rgb(0%,0%,0%);stroke-opacity:1;stroke-miterlimit:10;" d="M 287.999344 767.998092 L 66.296219 383.998092 L 509.702469 383.998092 Z M 287.999344 767.998092 " transform="matrix(1,0,0,-1,-66.097,774.669967)"/>
<path style="fill:none;stroke-width:0.4;stroke-linecap:butt;stroke-linejoin:round;stroke:rgb(0%,0%,0%);stroke-opacity:1;stroke-miterlimit:10;" d="M 287.999344 767.998092 L 177.147781 575.998092 L 398.850906 575.998092 Z M 287.999344 767.998092 " transform="matrix(1,0,0,-1,-66.097,774.669967)"/>
<path style="fill:none;stroke-width:0.4;stroke-linecap:butt;stroke-linejoin:round;stroke:rgb(0%,0%,0%);stroke-opacity:1;stroke-miterlimit:10;" d="M 177.151688 575.998092 L 66.300125 383.998092 L 288.00325 383.998092 Z M 177.151688 575.998092 " transform="matrix(1,0,0,-1,-66.097,774.669967)"/>
<path style="fill:none;stroke-width:0.4;stroke-linecap:butt;stroke-linejoin:round;stroke:rgb(0%,0%,0%);stroke-opacity:1;stroke-miterlimit:10;" d="M 398.847 575.998092 L 287.995438 383.998092 L 509.698563 383.998092 Z M 398.847 575.998092 " transform="matrix(1,0,0,-1,-66.097,774.669967)"/>
<path style="fill:none;stroke-width:0.4;stroke-linecap:butt;stroke-linejoin:round;stroke:rgb(0%,0%,0%);stroke-opacity:1;stroke-miterlimit:10;" d="M 287.999344 767.998092 L 66.296219 383.998092 L 509.702469 383.998092 Z M 287.999344 767.998092 " transform="matrix(1,0,0,-1,-66.097,774.669967)"/>
<path style="fill:none;stroke-width:0.4;stroke-linecap:butt;stroke-linejoin:round;stroke:rgb(0%,0%,0%);stroke-opacity:1;stroke-miterlimit:10;" d="M 287.999344 767.998092 L 66.296219 383.998092 L 509.702469 383.998092 Z M 287.999344 767.998092 " transform="matrix(1,0,0,-1,-66.097,774.669967)"/>
<path style="fill:none;stroke-width:0.4;stroke-linecap:butt;stroke-linejoin:round;stroke:rgb(0%,0%,0%);stroke-opacity:1;stroke-miterlimit:10;" d="M 287.999344 767.998092 L 177.147781 575.998092 L 398.850906 575.998092 Z M 287.999344 767.998092 " transform="matrix(1,0,0,-1,-66.097,774.669967)"/>
<path style="fill:none;stroke-width:0.4;stroke-linecap:butt;stroke-linejoin:round;stroke:rgb(0%,0%,0%);stroke-opacity:1;stroke-miterlimit:10;" d="M 177.151688 575.998092 L 66.300125 383.998092 L 288.00325 383.998092 Z M 177.151688 575.998092 " transform="matrix(1,0,0,-1,-66.097,774.669967)"/>
<path style="fill:none;stroke-width:0.4;stroke-linecap:butt;stroke-linejoin:round;stroke:rgb(0%,0%,0%);stroke-opacity:1;stroke-miterlimit:10;" d="M 398.847 575.998092 L 287.995438 383.998092 L 509.698563 383.998092 Z M 398.847 575.998092 " transform="matrix(1,0,0,-1,-66.097,774.669967)"/>
<path style="fill:none;stroke-width:0.4;stroke-linecap:butt;stroke-linejoin:round;stroke:rgb(0%,0%,0%);stroke-opacity:1;stroke-miterlimit:10;" d="M 287.999344 767.998092 L 66.296219 383.998092 L 509.702469 383.998092 Z M 287.999344 767.998092 " transform="matrix(1,0,0,-1,-66.097,774.669967)"/>
<path style="fill:none;stroke-width:0.4;stroke-linecap:butt;stroke-linejoin:round;stroke:rgb(0%,0%,0%);stroke-opacity:1;stroke-miterlimit:10;" d="M 287.999344 767.998092 L 177.147781 575.998092 L 398.850906 575.998092 Z M 287.999344 767.998092 " transform="matrix(1,0,0,-1,-66.097,774.669967)"/>
<path style="fill:none;stroke-width:0.4;stroke-linecap:butt;stroke-linejoin:round;stroke:rgb(0%,0%,0%);stroke-opacity:1;stroke-miterlimit:10;" d="M 177.151688 575.998092 L 66.300125 383.998092 L 288.00325 383.998092 Z M 177.151688 575.998092 " transform="matrix(1,0,0,-1,-66.097,774.669967)"/>
<path style="fill:none;stroke-width:0.4;stroke-linecap:butt;stroke-linejoin:round;stroke:rgb(0%,0%,0%);stroke-opacity:1;stroke-miterlimit:10;" d="M 398.847 575.998092 L 287.995438 383.998092 L 509.698563 383.998092 Z M 398.847 575.998092 " transform="matrix(1,0,0,-1,-66.097,774.669967)"/>
<path style="fill:none;stroke-width:0.4;stroke-linecap:butt;stroke-linejoin:round;stroke:rgb(0%,0%,0%);stroke-opacity:1;stroke-miterlimit:10;" d="M 287.999344 767.998092 L 177.147781 575.998092 L 398.850906 575.998092 Z M 287.999344 767.998092 " transform="matrix(1,0,0,-1,-66.097,774.669967)"/>
<path style="fill:none;stroke-width:0.4;stroke-linecap:butt;stroke-linejoin:round;stroke:rgb(0%,0%,0%);stroke-opacity:1;stroke-miterlimit:10;" d="M 287.999344 767.998092 L 232.573563 671.998092 L 343.425125 671.998092 Z M 287.999344 767.998092 " transform="matrix(1,0,0,-1,-66.097,774.669967)"/>
<path style="fill:none;stroke-width:0.4;stroke-linecap:butt;stroke-linejoin:round;stroke:rgb(0%,0%,0%);stroke-opacity:1;stroke-miterlimit:10;" d="M 232.577469 671.998092 L 177.151688 575.998092 L 288.00325 575.998092 Z M 232.577469 671.998092 " transform="matrix(1,0,0,-1,-66.097,774.669967)"/>
<path style="fill:none;stroke-width:0.4;stroke-linecap:butt;stroke-linejoin:round;stroke:rgb(0%,0%,0%);stroke-opacity:1;stroke-miterlimit:10;" d="M 343.425125 671.998092 L 287.999344 575.998092 L 398.850906 575.998092 Z M 343.425125 671.998092 " transform="matrix(1,0,0,-1,-66.097,774.669967)"/>
<path style="fill:none;stroke-width:0.4;stroke-linecap:butt;stroke-linejoin:round;stroke:rgb(0%,0%,0%);stroke-opacity:1;stroke-miterlimit:10;" d="M 177.151688 575.998092 L 66.300125 383.998092 L 288.00325 383.998092 Z M 177.151688 575.998092 " transform="matrix(1,0,0,-1,-66.097,774.669967)"/>
<path style="fill:none;stroke-width:0.4;stroke-linecap:butt;stroke-linejoin:round;stroke:rgb(0%,0%,0%);stroke-opacity:1;stroke-miterlimit:10;" d="M 177.151688 575.998092 L 121.725906 479.998092 L 232.577469 479.998092 Z M 177.151688 575.998092 " transform="matrix(1,0,0,-1,-66.097,774.669967)"/>
<path style="fill:none;stroke-width:0.4;stroke-linecap:butt;stroke-linejoin:round;stroke:rgb(0%,0%,0%);stroke-opacity:1;stroke-miterlimit:10;" d="M 121.729813 479.998092 L 66.304031 383.998092 L 177.155594 383.998092 Z M 121.729813 479.998092 " transform="matrix(1,0,0,-1,-66.097,774.669967)"/>
<path style="fill:none;stroke-width:0.4;stroke-linecap:butt;stroke-linejoin:round;stroke:rgb(0%,0%,0%);stroke-opacity:1;stroke-miterlimit:10;" d="M 232.577469 479.998092 L 177.151688 383.998092 L 288.00325 383.998092 Z M 232.577469 479.998092 " transform="matrix(1,0,0,-1,-66.097,774.669967)"/>
<path style="fill:none;stroke-width:0.4;stroke-linecap:butt;stroke-linejoin:round;stroke:rgb(0%,0%,0%);stroke-opacity:1;stroke-miterlimit:10;" d="M 398.847 575.998092 L 287.995438 383.998092 L 509.698563 383.998092 Z M 398.847 575.998092 " transform="matrix(1,0,0,-1,-66.097,774.669967)"/>
<path style="fill:none;stroke-width:0.4;stroke-linecap:butt;stroke-linejoin:round;stroke:rgb(0%,0%,0%);stroke-opacity:1;stroke-miterlimit:10;" d="M 398.847 575.998092 L 343.421219 479.998092 L 454.272781 479.998092 Z M 398.847 575.998092 " transform="matrix(1,0,0,-1,-66.097,774.669967)"/>
<path style="fill:none;stroke-width:0.4;stroke-linecap:butt;stroke-linejoin:round;stroke:rgb(0%,0%,0%);stroke-opacity:1;stroke-miterlimit:10;" d="M 343.425125 479.998092 L 287.999344 383.998092 L 398.850906 383.998092 Z M 343.425125 479.998092 " transform="matrix(1,0,0,-1,-66.097,774.669967)"/>
<path style="fill:none;stroke-width:0.4;stroke-linecap:butt;stroke-linejoin:round;stroke:rgb(0%,0%,0%);stroke-opacity:1;stroke-miterlimit:10;" d="M 454.272781 479.998092 L 398.847 383.998092 L 509.698563 383.998092 Z M 454.272781 479.998092 " transform="matrix(1,0,0,-1,-66.097,774.669967)"/>
<path style="fill:none;stroke-width:0.4;stroke-linecap:butt;stroke-linejoin:round;stroke:rgb(0%,0%,0%);stroke-opacity:1;stroke-miterlimit:10;" d="M 287.999344 767.998092 L 66.296219 383.998092 L 509.702469 383.998092 Z M 287.999344 767.998092 " transform="matrix(1,0,0,-1,-66.097,774.669967)"/>
<path style="fill:none;stroke-width:0.4;stroke-linecap:butt;stroke-linejoin:round;stroke:rgb(0%,0%,0%);stroke-opacity:1;stroke-miterlimit:10;" d="M 287.999344 767.998092 L 66.296219 383.998092 L 509.702469 383.998092 Z M 287.999344 767.998092 " transform="matrix(1,0,0,-1,-66.097,774.669967)"/>
<path style="fill:none;stroke-width:0.4;stroke-linecap:butt;stroke-linejoin:round;stroke:rgb(0%,0%,0%);stroke-opacity:1;stroke-miterlimit:10;" d="M 287.999344 767.998092 L 66.296219 383.998092 L 509.702469 383.998092 Z M 287.999344 767.998092 " transform="matrix(1,0,0,-1,-66.097,774.669967)"/>
<path style="fill:none;stroke-width:0.4;stroke-linecap:butt;stroke-linejoin:round;stroke:rgb(0%,0%,0%);stroke-opacity:1;stroke-miterlimit:10;" d="M 287.999344 767.998092 L 177.147781 575.998092 L 398.850906 575.998092 Z M 287.999344 767.998092 " transform="matrix(1,0,0,-1,-66.097,774.669967)"/>
<path style="fill:none;stroke-width:0.4;stroke-linecap:butt;stroke-linejoin:round;stroke:rgb(0%,0%,0%);stroke-opacity:1;stroke-miterlimit:10;" d="M 177.151688 575.998092 L 66.300125 383.998092 L 288.00325 383.998092 Z M 177.151688 575.998092 " transform="matrix(1,0,0,-1,-66.097,774.669967)"/>
<path style="fill:none;stroke-width:0.4;stroke-linecap:butt;stroke-linejoin:round;stroke:rgb(0%,0%,0%);stroke-opacity:1;stroke-miterlimit:10;" d="M 398.847 575.998092 L 287.995438 383.998092 L 509.698563 383.998092 Z M 398.847 575.998092 " transform="matrix(1,0,0,-1,-66.097,774.669967)"/>
<path style="fill:none;stroke-width:0.4;stroke-linecap:butt;stroke-linejoin:round;stroke:rgb(0%,0%,0%);stroke-opacity:1;stroke-miterlimit:10;" d="M 287.999344 767.998092 L 66.296219 383.998092 L 509.702469 383.998092 Z M 287.999344 767.998092 " transform="matrix(1,0,0,-1,-66.097,774.669967)"/>
<path style="fill:none;stroke-width:0.4;stroke-linecap:butt;stroke-linejoin:round;stroke:rgb(0%,0%,0%);stroke-opacity:1;stroke-miterlimit:10;" d="M 287.999344 767.998092 L 66.296219 383.998092 L 509.702469 383.998092 Z M 287.999344 767.998092 " transform="matrix(1,0,0,-1,-66.097,774.669967)"/>
<path style="fill:none;stroke-width:0.4;stroke-linecap:butt;stroke-linejoin:round;stroke:rgb(0%,0%,0%);stroke-opacity:1;stroke-miterlimit:10;" d="M 287.999344 767.998092 L 177.147781 575.998092 L 398.850906 575.998092 Z M 287.999344 767.998092 " transform="matrix(1,0,0,-1,-66.097,774.669967)"/>
<path style="fill:none;stroke-width:0.4;stroke-linecap:butt;stroke-linejoin:round;stroke:rgb(0%,0%,0%);stroke-opacity:1;stroke-miterlimit:10;" d="M 177.151688 575.998092 L 66.300125 383.998092 L 288.00325 383.998092 Z M 177.151688 575.998092 " transform="matrix(1,0,0,-1,-66.097,774.669967)"/>
<path style="fill:none;stroke-width:0.4;stroke-linecap:butt;stroke-linejoin:round;stroke:rgb(0%,0%,0%);stroke-opacity:1;stroke-miterlimit:10;" d="M 398.847 575.998092 L 287.995438 383.998092 L 509.698563 383.998092 Z M 398.847 575.998092 " transform="matrix(1,0,0,-1,-66.097,774.669967)"/>
<path style="fill:none;stroke-width:0.4;stroke-linecap:butt;stroke-linejoin:round;stroke:rgb(0%,0%,0%);stroke-opacity:1;stroke-miterlimit:10;" d="M 287.999344 767.998092 L 66.296219 383.998092 L 509.702469 383.998092 Z M 287.999344 767.998092 " transform="matrix(1,0,0,-1,-66.097,774.669967)"/>
<path style="fill:none;stroke-width:0.4;stroke-linecap:butt;stroke-linejoin:round;stroke:rgb(0%,0%,0%);stroke-opacity:1;stroke-miterlimit:10;" d="M 287.999344 767.998092 L 177.147781 575.998092 L 398.850906 575.998092 Z M 287.999344 767.998092 " transform="matrix(1,0,0,-1,-66.097,774.669967)"/>
<path style="fill:none;stroke-width:0.4;stroke-linecap:butt;stroke-linejoin:round;stroke:rgb(0%,0%,0%);stroke-opacity:1;stroke-miterlimit:10;" d="M 177.151688 575.998092 L 66.300125 383.998092 L 288.00325 383.998092 Z M 177.151688 575.998092 " transform="matrix(1,0,0,-1,-66.097,774.669967)"/>
<path style="fill:none;stroke-width:0.4;stroke-linecap:butt;stroke-linejoin:round;stroke:rgb(0%,0%,0%);stroke-opacity:1;stroke-miterlimit:10;" d="M 398.847 575.998092 L 287.995438 383.998092 L 509.698563 383.998092 Z M 398.847 575.998092 " transform="matrix(1,0,0,-1,-66.097,774.669967)"/>
<path style="fill:none;stroke-width:0.4;stroke-linecap:butt;stroke-linejoin:round;stroke:rgb(0%,0%,0%);stroke-opacity:1;stroke-miterlimit:10;" d="M 287.999344 767.998092 L 177.147781 575.998092 L 398.850906 575.998092 Z M 287.999344 767.998092 " transform="matrix(1,0,0,-1,-66.097,774.669967)"/>
<path style="fill:none;stroke-width:0.4;stroke-linecap:butt;stroke-linejoin:round;stroke:rgb(0%,0%,0%);stroke-opacity:1;stroke-miterlimit:10;" d="M 287.999344 767.998092 L 232.573563 671.998092 L 343.425125 671.998092 Z M 287.999344 767.998092 " transform="matrix(1,0,0,-1,-66.097,774.669967)"/>
<path style="fill:none;stroke-width:0.4;stroke-linecap:butt;stroke-linejoin:round;stroke:rgb(0%,0%,0%);stroke-opacity:1;stroke-miterlimit:10;" d="M 232.577469 671.998092 L 177.151688 575.998092 L 288.00325 575.998092 Z M 232.577469 671.998092 " transform="matrix(1,0,0,-1,-66.097,774.669967)"/>
<path style="fill:none;stroke-width:0.4;stroke-linecap:butt;stroke-linejoin:round;stroke:rgb(0%,0%,0%);stroke-opacity:1;stroke-miterlimit:10;" d="M 343.425125 671.998092 L 287.999344 575.998092 L 398.850906 575.998092 Z M 343.425125 671.998092 " transform="matrix(1,0,0,-1,-66.097,774.669967)"/>
<path style="fill:none;stroke-width:0.4;stroke-linecap:butt;stroke-linejoin:round;stroke:rgb(0%,0%,0%);stroke-opacity:1;stroke-miterlimit:10;" d="M 177.151688 575.998092 L 66.300125 383.998092 L 288.00325 383.998092 Z M 177.151688 575.998092 " transform="matrix(1,0,0,-1,-66.097,774.669967)"/>
<path style="fill:none;stroke-width:0.4;stroke-linecap:butt;stroke-linejoin:round;stroke:rgb(0%,0%,0%);stroke-opacity:1;stroke-miterlimit:10;" d="M 177.151688 575.998092 L 121.725906 479.998092 L 232.577469 479.998092 Z M 177.151688 575.998092 " transform="matrix(1,0,0,-1,-66.097,774.669967)"/>
<path style="fill:none;stroke-width:0.4;stroke-linecap:butt;stroke-linejoin:round;stroke:rgb(0%,0%,0%);stroke-opacity:1;stroke-miterlimit:10;" d="M 121.729813 479.998092 L 66.304031 383.998092 L 177.155594 383.998092 Z M 121.729813 479.998092 " transform="matrix(1,0,0,-1,-66.097,774.669967)"/>
<path style="fill:none;stroke-width:0.4;stroke-linecap:butt;stroke-linejoin:round;stroke:rgb(0%,0%,0%);stroke-opacity:1;stroke-miterlimit:10;" d="M 232.577469 479.998092 L 177.151688 383.998092 L 288.00325 383.998092 Z M 232.577469 479.998092 " transform="matrix(1,0,0,-1,-66.097,774.669967)"/>
<path style="fill:none;stroke-width:0.4;stroke-linecap:butt;stroke-linejoin:round;stroke:rgb(0%,0%,0%);stroke-opacity:1;stroke-miterlimit:10;" d="M 398.847 575.998092 L 287.995438 383.998092 L 509.698563 383.998092 Z M 398.847 575.998092 " transform="matrix(1,0,0,-1,-66.097,774.669967)"/>
<path style="fill:none;stroke-width:0.4;stroke-linecap:butt;stroke-linejoin:round;stroke:rgb(0%,0%,0%);stroke-opacity:1;stroke-miterlimit:10;" d="M 398.847 575.998092 L 343.421219 479.998092 L 454.272781 479.998092 Z M 398.847 575.998092 " transform="matrix(1,0,0,-1,-66.097,774.669967)"/>
<path style="fill:none;stroke-width:0.4;stroke-linecap:butt;stroke-linejoin:round;stroke:rgb(0%,0%,0%);stroke-opacity:1;stroke-miterlimit:10;" d="M 343.425125 479.998092 L 287.999344 383.998092 L 398.850906 383.998092 Z M 343.425125 479.998092 " transform="matrix(1,0,0,-1,-66.097,774.669967)"/>
<path style="fill:none;stroke-width:0.4;stroke-linecap:butt;stroke-linejoin:round;stroke:rgb(0%,0%,0%);stroke-opacity:1;stroke-miterlimit:10;" d="M 454.272781 479.998092 L 398.847 383.998092 L 509.698563 383.998092 Z M 454.272781 479.998092 " transform="matrix(1,0,0,-1,-66.097,774.669967)"/>
<path style="fill:none;stroke-width:0.4;stroke-linecap:butt;stroke-linejoin:round;stroke:rgb(0%,0%,0%);stroke-opacity:1;stroke-miterlimit:10;" d="M 287.999344 767.998092 L 66.296219 383.998092 L 509.702469 383.998092 Z M 287.999344 767.998092 " transform="matrix(1,0,0,-1,-66.097,774.669967)"/>
<path style="fill:none;stroke-width:0.4;stroke-linecap:butt;stroke-linejoin:round;stroke:rgb(0%,0%,0%);stroke-opacity:1;stroke-miterlimit:10;" d="M 287.999344 767.998092 L 66.296219 383.998092 L 509.702469 383.998092 Z M 287.999344 767.998092 " transform="matrix(1,0,0,-1,-66.097,774.669967)"/>
<path style="fill:none;stroke-width:0.4;stroke-linecap:butt;stroke-linejoin:round;stroke:rgb(0%,0%,0%);stroke-opacity:1;stroke-miterlimit:10;" d="M 287.999344 767.998092 L 177.147781 575.998092 L 398.850906 575.998092 Z M 287.999344 767.998092 " transform="matrix(1,0,0,-1,-66.097,774.669967)"/>
<path style="fill:none;stroke-width:0.4;stroke-linecap:butt;stroke-linejoin:round;stroke:rgb(0%,0%,0%);stroke-opacity:1;stroke-miterlimit:10;" d="M 177.151688 575.998092 L 66.300125 383.998092 L 288.00325 383.998092 Z M 177.151688 575.998092 " transform="matrix(1,0,0,-1,-66.097,774.669967)"/>
<path style="fill:none;stroke-width:0.4;stroke-linecap:butt;stroke-linejoin:round;stroke:rgb(0%,0%,0%);stroke-opacity:1;stroke-miterlimit:10;" d="M 398.847 575.998092 L 287.995438 383.998092 L 509.698563 383.998092 Z M 398.847 575.998092 " transform="matrix(1,0,0,-1,-66.097,774.669967)"/>
<path style="fill:none;stroke-width:0.4;stroke-linecap:butt;stroke-linejoin:round;stroke:rgb(0%,0%,0%);stroke-opacity:1;stroke-miterlimit:10;" d="M 287.999344 767.998092 L 66.296219 383.998092 L 509.702469 383.998092 Z M 287.999344 767.998092 " transform="matrix(1,0,0,-1,-66.097,774.669967)"/>
<path style="fill:none;stroke-width:0.4;stroke-linecap:butt;stroke-linejoin:round;stroke:rgb(0%,0%,0%);stroke-opacity:1;stroke-miterlimit:10;" d="M 287.999344 767.998092 L 177.147781 575.998092 L 398.850906 575.998092 Z M 287.999344 767.998092 " transform="matrix(1,0,0,-1,-66.097,774.669967)"/>
<path style="fill:none;stroke-width:0.4;stroke-linecap:butt;stroke-linejoin:round;stroke:rgb(0%,0%,0%);stroke-opacity:1;stroke-miterlimit:10;" d="M 177.151688 575.998092 L 66.300125 383.998092 L 288.00325 383.998092 Z M 177.151688 575.998092 " transform="matrix(1,0,0,-1,-66.097,774.669967)"/>
<path style="fill:none;stroke-width:0.4;stroke-linecap:butt;stroke-linejoin:round;stroke:rgb(0%,0%,0%);stroke-opacity:1;stroke-miterlimit:10;" d="M 398.847 575.998092 L 287.995438 383.998092 L 509.698563 383.998092 Z M 398.847 575.998092 " transform="matrix(1,0,0,-1,-66.097,774.669967)"/>
<path style="fill:none;stroke-width:0.4;stroke-linecap:butt;stroke-linejoin:round;stroke:rgb(0%,0%,0%);stroke-opacity:1;stroke-miterlimit:10;" d="M 287.999344 767.998092 L 177.147781 575.998092 L 398.850906 575.998092 Z M 287.999344 767.998092 " transform="matrix(1,0,0,-1,-66.097,774.669967)"/>
<path style="fill:none;stroke-width:0.4;stroke-linecap:butt;stroke-linejoin:round;stroke:rgb(0%,0%,0%);stroke-opacity:1;stroke-miterlimit:10;" d="M 287.999344 767.998092 L 232.573563 671.998092 L 343.425125 671.998092 Z M 287.999344 767.998092 " transform="matrix(1,0,0,-1,-66.097,774.669967)"/>
<path style="fill:none;stroke-width:0.4;stroke-linecap:butt;stroke-linejoin:round;stroke:rgb(0%,0%,0%);stroke-opacity:1;stroke-miterlimit:10;" d="M 232.577469 671.998092 L 177.151688 575.998092 L 288.00325 575.998092 Z M 232.577469 671.998092 " transform="matrix(1,0,0,-1,-66.097,774.669967)"/>
<path style="fill:none;stroke-width:0.4;stroke-linecap:butt;stroke-linejoin:round;stroke:rgb(0%,0%,0%);stroke-opacity:1;stroke-miterlimit:10;" d="M 343.425125 671.998092 L 287.999344 575.998092 L 398.850906 575.998092 Z M 343.425125 671.998092 " transform="matrix(1,0,0,-1,-66.097,774.669967)"/>
<path style="fill:none;stroke-width:0.4;stroke-linecap:butt;stroke-linejoin:round;stroke:rgb(0%,0%,0%);stroke-opacity:1;stroke-miterlimit:10;" d="M 177.151688 575.998092 L 66.300125 383.998092 L 288.00325 383.998092 Z M 177.151688 575.998092 " transform="matrix(1,0,0,-1,-66.097,774.669967)"/>
<path style="fill:none;stroke-width:0.4;stroke-linecap:butt;stroke-linejoin:round;stroke:rgb(0%,0%,0%);stroke-opacity:1;stroke-miterlimit:10;" d="M 177.151688 575.998092 L 121.725906 479.998092 L 232.577469 479.998092 Z M 177.151688 575.998092 " transform="matrix(1,0,0,-1,-66.097,774.669967)"/>
<path style="fill:none;stroke-width:0.4;stroke-linecap:butt;stroke-linejoin:round;stroke:rgb(0%,0%,0%);stroke-opacity:1;stroke-miterlimit:10;" d="M 121.729813 479.998092 L 66.304031 383.998092 L 177.155594 383.998092 Z M 121.729813 479.998092 " transform="matrix(1,0,0,-1,-66.097,774.669967)"/>
<path style="fill:none;stroke-width:0.4;stroke-linecap:butt;stroke-linejoin:round;stroke:rgb(0%,0%,0%);stroke-opacity:1;stroke-miterlimit:10;" d="M 232.577469 479.998092 L 177.151688 383.998092 L 288.00325 383.998092 Z M 232.577469 479.998092 " transform="matrix(1,0,0,-1,-66.097,774.669967)"/>
<path style="fill:none;stroke-width:0.4;stroke-linecap:butt;stroke-linejoin:round;stroke:rgb(0%,0%,0%);stroke-opacity:1;stroke-miterlimit:10;" d="M 398.847 575.998092 L 287.995438 383.998092 L 509.698563 383.998092 Z M 398.847 575.998092 " transform="matrix(1,0,0,-1,-66.097,774.669967)"/>
<path style="fill:none;stroke-width:0.4;stroke-linecap:butt;stroke-linejoin:round;stroke:rgb(0%,0%,0%);stroke-opacity:1;stroke-miterlimit:10;" d="M 398.847 575.998092 L 343.421219 479.998092 L 454.272781 479.998092 Z M 398.847 575.998092 " transform="matrix(1,0,0,-1,-66.097,774.669967)"/>
<path style="fill:none;stroke-width:0.4;stroke-linecap:butt;stroke-linejoin:round;stroke:rgb(0%,0%,0%);stroke-opacity:1;stroke-miterlimit:10;" d="M 343.425125 479.998092 L 287.999344 383.998092 L 398.850906 383.998092 Z M 343.425125 479.998092 " transform="matrix(1,0,0,-1,-66.097,774.669967)"/>
<path style="fill:none;stroke-width:0.4;stroke-linecap:butt;stroke-linejoin:round;stroke:rgb(0%,0%,0%);stroke-opacity:1;stroke-miterlimit:10;" d="M 454.272781 479.998092 L 398.847 383.998092 L 509.698563 383.998092 Z M 454.272781 479.998092 " transform="matrix(1,0,0,-1,-66.097,774.669967)"/>
<path style="fill:none;stroke-width:0.4;stroke-linecap:butt;stroke-linejoin:round;stroke:rgb(0%,0%,0%);stroke-opacity:1;stroke-miterlimit:10;" d="M 287.999344 767.998092 L 66.296219 383.998092 L 509.702469 383.998092 Z M 287.999344 767.998092 " transform="matrix(1,0,0,-1,-66.097,774.669967)"/>
<path style="fill:none;stroke-width:0.4;stroke-linecap:butt;stroke-linejoin:round;stroke:rgb(0%,0%,0%);stroke-opacity:1;stroke-miterlimit:10;" d="M 287.999344 767.998092 L 177.147781 575.998092 L 398.850906 575.998092 Z M 287.999344 767.998092 " transform="matrix(1,0,0,-1,-66.097,774.669967)"/>
<path style="fill:none;stroke-width:0.4;stroke-linecap:butt;stroke-linejoin:round;stroke:rgb(0%,0%,0%);stroke-opacity:1;stroke-miterlimit:10;" d="M 177.151688 575.998092 L 66.300125 383.998092 L 288.00325 383.998092 Z M 177.151688 575.998092 " transform="matrix(1,0,0,-1,-66.097,774.669967)"/>
<path style="fill:none;stroke-width:0.4;stroke-linecap:butt;stroke-linejoin:round;stroke:rgb(0%,0%,0%);stroke-opacity:1;stroke-miterlimit:10;" d="M 398.847 575.998092 L 287.995438 383.998092 L 509.698563 383.998092 Z M 398.847 575.998092 " transform="matrix(1,0,0,-1,-66.097,774.669967)"/>
<path style="fill:none;stroke-width:0.4;stroke-linecap:butt;stroke-linejoin:round;stroke:rgb(0%,0%,0%);stroke-opacity:1;stroke-miterlimit:10;" d="M 287.999344 767.998092 L 177.147781 575.998092 L 398.850906 575.998092 Z M 287.999344 767.998092 " transform="matrix(1,0,0,-1,-66.097,774.669967)"/>
<path style="fill:none;stroke-width:0.4;stroke-linecap:butt;stroke-linejoin:round;stroke:rgb(0%,0%,0%);stroke-opacity:1;stroke-miterlimit:10;" d="M 287.999344 767.998092 L 232.573563 671.998092 L 343.425125 671.998092 Z M 287.999344 767.998092 " transform="matrix(1,0,0,-1,-66.097,774.669967)"/>
<path style="fill:none;stroke-width:0.4;stroke-linecap:butt;stroke-linejoin:round;stroke:rgb(0%,0%,0%);stroke-opacity:1;stroke-miterlimit:10;" d="M 232.577469 671.998092 L 177.151688 575.998092 L 288.00325 575.998092 Z M 232.577469 671.998092 " transform="matrix(1,0,0,-1,-66.097,774.669967)"/>
<path style="fill:none;stroke-width:0.4;stroke-linecap:butt;stroke-linejoin:round;stroke:rgb(0%,0%,0%);stroke-opacity:1;stroke-miterlimit:10;" d="M 343.425125 671.998092 L 287.999344 575.998092 L 398.850906 575.998092 Z M 343.425125 671.998092 " transform="matrix(1,0,0,-1,-66.097,774.669967)"/>
<path style="fill:none;stroke-width:0.4;stroke-linecap:butt;stroke-linejoin:round;stroke:rgb(0%,0%,0%);stroke-opacity:1;stroke-miterlimit:10;" d="M 177.151688 575.998092 L 66.300125 383.998092 L 288.00325 383.998092 Z M 177.151688 575.998092 " transform="matrix(1,0,0,-1,-66.097,774.669967)"/>
<path style="fill:none;stroke-width:0.4;stroke-linecap:butt;stroke-linejoin:round;stroke:rgb(0%,0%,0%);stroke-opacity:1;stroke-miterlimit:10;" d="M 177.151688 575.998092 L 121.725906 479.998092 L 232.577469 479.998092 Z M 177.151688 575.998092 " transform="matrix(1,0,0,-1,-66.097,774.669967)"/>
<path style="fill:none;stroke-width:0.4;stroke-linecap:butt;stroke-linejoin:round;stroke:rgb(0%,0%,0%);stroke-opacity:1;stroke-miterlimit:10;" d="M 121.729813 479.998092 L 66.304031 383.998092 L 177.155594 383.998092 Z M 121.729813 479.998092 " transform="matrix(1,0,0,-1,-66.097,774.669967)"/>
<path style="fill:none;stroke-width:0.4;stroke-linecap:butt;stroke-linejoin:round;stroke:rgb(0%,0%,0%);stroke-opacity:1;stroke-miterlimit:10;" d="M 232.577469 479.998092 L 177.151688 383.998092 L 288.00325 383.998092 Z M 232.577469 479.998092 " transform="matrix(1,0,0,-1,-66.097,774.669967)"/>
<path style="fill:none;stroke-width:0.4;stroke-linecap:butt;stroke-linejoin:round;stroke:rgb(0%,0%,0%);stroke-opacity:1;stroke-miterlimit:10;" d="M 398.847 575.998092 L 287.995438 383.998092 L 509.698563 383.998092 Z M 398.847 575.998092 " transform="matrix(1,0,0,-1,-66.097,774.669967)"/>
<path style="fill:none;stroke-width:0.4;stroke-linecap:butt;stroke-linejoin:round;stroke:rgb(0%,0%,0%);stroke-opacity:1;stroke-miterlimit:10;" d="M 398.847 575.998092 L 343.421219 479.998092 L 454.272781 479.998092 Z M 398.847 575.998092 " transform="matrix(1,0,0,-1,-66.097,774.669967)"/>
<path style="fill:none;stroke-width:0.4;stroke-linecap:butt;stroke-linejoin:round;stroke:rgb(0%,0%,0%);stroke-opacity:1;stroke-miterlimit:10;" d="M 343.425125 479.998092 L 287.999344 383.998092 L 398.850906 383.998092 Z M 343.425125 479.998092 " transform="matrix(1,0,0,-1,-66.097,774.669967)"/>
<path style="fill:none;stroke-width:0.4;stroke-linecap:butt;stroke-linejoin:round;stroke:rgb(0%,0%,0%);stroke-opacity:1;stroke-miterlimit:10;" d="M 454.272781 479.998092 L 398.847 383.998092 L 509.698563 383.998092 Z M 454.272781 479.998092 " transform="matrix(1,0,0,-1,-66.097,774.669967)"/>
<path style="fill:none;stroke-width:0.4;stroke-linecap:butt;stroke-linejoin:round;stroke:rgb(0%,0%,0%);stroke-opacity:1;stroke-miterlimit:10;" d="M 287.999344 767.998092 L 177.147781 575.998092 L 398.850906 575.998092 Z M 287.999344 767.998092 " transform="matrix(1,0,0,-1,-66.097,774.669967)"/>
<path style="fill:none;stroke-width:0.4;stroke-linecap:butt;stroke-linejoin:round;stroke:rgb(0%,0%,0%);stroke-opacity:1;stroke-miterlimit:10;" d="M 287.999344 767.998092 L 232.573563 671.998092 L 343.425125 671.998092 Z M 287.999344 767.998092 " transform="matrix(1,0,0,-1,-66.097,774.669967)"/>
<path style="fill:none;stroke-width:0.4;stroke-linecap:butt;stroke-linejoin:round;stroke:rgb(0%,0%,0%);stroke-opacity:1;stroke-miterlimit:10;" d="M 232.577469 671.998092 L 177.151688 575.998092 L 288.00325 575.998092 Z M 232.577469 671.998092 " transform="matrix(1,0,0,-1,-66.097,774.669967)"/>
<path style="fill:none;stroke-width:0.4;stroke-linecap:butt;stroke-linejoin:round;stroke:rgb(0%,0%,0%);stroke-opacity:1;stroke-miterlimit:10;" d="M 343.425125 671.998092 L 287.999344 575.998092 L 398.850906 575.998092 Z M 343.425125 671.998092 " transform="matrix(1,0,0,-1,-66.097,774.669967)"/>
<path style="fill:none;stroke-width:0.4;stroke-linecap:butt;stroke-linejoin:round;stroke:rgb(0%,0%,0%);stroke-opacity:1;stroke-miterlimit:10;" d="M 287.999344 767.998092 L 232.573563 671.998092 L 343.425125 671.998092 Z M 287.999344 767.998092 " transform="matrix(1,0,0,-1,-66.097,774.669967)"/>
<path style="fill:none;stroke-width:2;stroke-linecap:butt;stroke-linejoin:round;stroke:rgb(100%,0%,0%);stroke-opacity:1;stroke-miterlimit:10;" d="M 287.999344 767.998092 L 260.288406 719.998092 L 315.714188 719.998092 Z M 287.999344 767.998092 " transform="matrix(1,0,0,-1,-66.097,774.669967)"/>
<path style="fill:none;stroke-width:0.4;stroke-linecap:butt;stroke-linejoin:round;stroke:rgb(0%,0%,0%);stroke-opacity:1;stroke-miterlimit:10;" d="M 260.304031 719.998092 L 232.589188 671.998092 L 288.014969 671.998092 Z M 260.304031 719.998092 " transform="matrix(1,0,0,-1,-66.097,774.669967)"/>
<path style="fill:none;stroke-width:0.4;stroke-linecap:butt;stroke-linejoin:round;stroke:rgb(0%,0%,0%);stroke-opacity:1;stroke-miterlimit:10;" d="M 315.710281 719.998092 L 287.999344 671.998092 L 343.425125 671.998092 Z M 315.710281 719.998092 " transform="matrix(1,0,0,-1,-66.097,774.669967)"/>
<path style="fill:none;stroke-width:0.4;stroke-linecap:butt;stroke-linejoin:round;stroke:rgb(0%,0%,0%);stroke-opacity:1;stroke-miterlimit:10;" d="M 232.577469 671.998092 L 177.151688 575.998092 L 288.00325 575.998092 Z M 232.577469 671.998092 " transform="matrix(1,0,0,-1,-66.097,774.669967)"/>
<path style="fill:none;stroke-width:0.4;stroke-linecap:butt;stroke-linejoin:round;stroke:rgb(0%,0%,0%);stroke-opacity:1;stroke-miterlimit:10;" d="M 232.577469 671.998092 L 204.862625 623.998092 L 260.288406 623.998092 Z M 232.577469 671.998092 " transform="matrix(1,0,0,-1,-66.097,774.669967)"/>
<path style="fill:none;stroke-width:0.4;stroke-linecap:butt;stroke-linejoin:round;stroke:rgb(0%,0%,0%);stroke-opacity:1;stroke-miterlimit:10;" d="M 204.862625 623.998092 L 177.151688 575.998092 L 232.577469 575.998092 Z M 204.862625 623.998092 " transform="matrix(1,0,0,-1,-66.097,774.669967)"/>
<path style="fill:none;stroke-width:0.4;stroke-linecap:butt;stroke-linejoin:round;stroke:rgb(0%,0%,0%);stroke-opacity:1;stroke-miterlimit:10;" d="M 260.304031 623.998092 L 232.589188 575.998092 L 288.014969 575.998092 Z M 260.304031 623.998092 " transform="matrix(1,0,0,-1,-66.097,774.669967)"/>
<path style="fill:none;stroke-width:0.4;stroke-linecap:butt;stroke-linejoin:round;stroke:rgb(0%,0%,0%);stroke-opacity:1;stroke-miterlimit:10;" d="M 343.425125 671.998092 L 287.999344 575.998092 L 398.850906 575.998092 Z M 343.425125 671.998092 " transform="matrix(1,0,0,-1,-66.097,774.669967)"/>
<path style="fill:none;stroke-width:0.4;stroke-linecap:butt;stroke-linejoin:round;stroke:rgb(0%,0%,0%);stroke-opacity:1;stroke-miterlimit:10;" d="M 343.425125 671.998092 L 315.710281 623.998092 L 371.136063 623.998092 Z M 343.425125 671.998092 " transform="matrix(1,0,0,-1,-66.097,774.669967)"/>
<path style="fill:none;stroke-width:0.4;stroke-linecap:butt;stroke-linejoin:round;stroke:rgb(0%,0%,0%);stroke-opacity:1;stroke-miterlimit:10;" d="M 315.710281 623.998092 L 287.999344 575.998092 L 343.425125 575.998092 Z M 315.710281 623.998092 " transform="matrix(1,0,0,-1,-66.097,774.669967)"/>
<path style="fill:none;stroke-width:0.4;stroke-linecap:butt;stroke-linejoin:round;stroke:rgb(0%,0%,0%);stroke-opacity:1;stroke-miterlimit:10;" d="M 371.151688 623.998092 L 343.44075 575.998092 L 398.866531 575.998092 Z M 371.151688 623.998092 " transform="matrix(1,0,0,-1,-66.097,774.669967)"/>
<path style="fill:none;stroke-width:0.4;stroke-linecap:butt;stroke-linejoin:round;stroke:rgb(0%,0%,0%);stroke-opacity:1;stroke-miterlimit:10;" d="M 177.151688 575.998092 L 66.300125 383.998092 L 288.00325 383.998092 Z M 177.151688 575.998092 " transform="matrix(1,0,0,-1,-66.097,774.669967)"/>
<path style="fill:none;stroke-width:0.4;stroke-linecap:butt;stroke-linejoin:round;stroke:rgb(0%,0%,0%);stroke-opacity:1;stroke-miterlimit:10;" d="M 177.151688 575.998092 L 121.725906 479.998092 L 232.577469 479.998092 Z M 177.151688 575.998092 " transform="matrix(1,0,0,-1,-66.097,774.669967)"/>
<path style="fill:none;stroke-width:0.4;stroke-linecap:butt;stroke-linejoin:round;stroke:rgb(0%,0%,0%);stroke-opacity:1;stroke-miterlimit:10;" d="M 121.729813 479.998092 L 66.304031 383.998092 L 177.155594 383.998092 Z M 121.729813 479.998092 " transform="matrix(1,0,0,-1,-66.097,774.669967)"/>
<path style="fill:none;stroke-width:0.4;stroke-linecap:butt;stroke-linejoin:round;stroke:rgb(0%,0%,0%);stroke-opacity:1;stroke-miterlimit:10;" d="M 232.577469 479.998092 L 177.151688 383.998092 L 288.00325 383.998092 Z M 232.577469 479.998092 " transform="matrix(1,0,0,-1,-66.097,774.669967)"/>
<path style="fill:none;stroke-width:0.4;stroke-linecap:butt;stroke-linejoin:round;stroke:rgb(0%,0%,0%);stroke-opacity:1;stroke-miterlimit:10;" d="M 177.151688 575.998092 L 121.725906 479.998092 L 232.577469 479.998092 Z M 177.151688 575.998092 " transform="matrix(1,0,0,-1,-66.097,774.669967)"/>
<path style="fill:none;stroke-width:0.4;stroke-linecap:butt;stroke-linejoin:round;stroke:rgb(0%,0%,0%);stroke-opacity:1;stroke-miterlimit:10;" d="M 177.151688 575.998092 L 149.44075 527.998092 L 204.866531 527.998092 Z M 177.151688 575.998092 " transform="matrix(1,0,0,-1,-66.097,774.669967)"/>
<path style="fill:none;stroke-width:0.4;stroke-linecap:butt;stroke-linejoin:round;stroke:rgb(0%,0%,0%);stroke-opacity:1;stroke-miterlimit:10;" d="M 149.456375 527.998092 L 121.741531 479.998092 L 177.167313 479.998092 Z M 149.456375 527.998092 " transform="matrix(1,0,0,-1,-66.097,774.669967)"/>
<path style="fill:none;stroke-width:0.4;stroke-linecap:butt;stroke-linejoin:round;stroke:rgb(0%,0%,0%);stroke-opacity:1;stroke-miterlimit:10;" d="M 204.862625 527.998092 L 177.151688 479.998092 L 232.577469 479.998092 Z M 204.862625 527.998092 " transform="matrix(1,0,0,-1,-66.097,774.669967)"/>
<path style="fill:none;stroke-width:0.4;stroke-linecap:butt;stroke-linejoin:round;stroke:rgb(0%,0%,0%);stroke-opacity:1;stroke-miterlimit:10;" d="M 121.729813 479.998092 L 66.304031 383.998092 L 177.155594 383.998092 Z M 121.729813 479.998092 " transform="matrix(1,0,0,-1,-66.097,774.669967)"/>
<path style="fill:none;stroke-width:0.4;stroke-linecap:butt;stroke-linejoin:round;stroke:rgb(0%,0%,0%);stroke-opacity:1;stroke-miterlimit:10;" d="M 121.729813 479.998092 L 94.014969 431.998092 L 149.44075 431.998092 Z M 121.729813 479.998092 " transform="matrix(1,0,0,-1,-66.097,774.669967)"/>
<path style="fill:none;stroke-width:0.4;stroke-linecap:butt;stroke-linejoin:round;stroke:rgb(0%,0%,0%);stroke-opacity:1;stroke-miterlimit:10;" d="M 94.014969 431.998092 L 66.304031 383.998092 L 121.729813 383.998092 Z M 94.014969 431.998092 " transform="matrix(1,0,0,-1,-66.097,774.669967)"/>
<path style="fill:none;stroke-width:0.4;stroke-linecap:butt;stroke-linejoin:round;stroke:rgb(0%,0%,0%);stroke-opacity:1;stroke-miterlimit:10;" d="M 149.456375 431.998092 L 121.741531 383.998092 L 177.167313 383.998092 Z M 149.456375 431.998092 " transform="matrix(1,0,0,-1,-66.097,774.669967)"/>
<path style="fill:none;stroke-width:0.4;stroke-linecap:butt;stroke-linejoin:round;stroke:rgb(0%,0%,0%);stroke-opacity:1;stroke-miterlimit:10;" d="M 232.577469 479.998092 L 177.151688 383.998092 L 288.00325 383.998092 Z M 232.577469 479.998092 " transform="matrix(1,0,0,-1,-66.097,774.669967)"/>
<path style="fill:none;stroke-width:0.4;stroke-linecap:butt;stroke-linejoin:round;stroke:rgb(0%,0%,0%);stroke-opacity:1;stroke-miterlimit:10;" d="M 232.577469 479.998092 L 204.862625 431.998092 L 260.288406 431.998092 Z M 232.577469 479.998092 " transform="matrix(1,0,0,-1,-66.097,774.669967)"/>
<path style="fill:none;stroke-width:0.4;stroke-linecap:butt;stroke-linejoin:round;stroke:rgb(0%,0%,0%);stroke-opacity:1;stroke-miterlimit:10;" d="M 204.862625 431.998092 L 177.151688 383.998092 L 232.577469 383.998092 Z M 204.862625 431.998092 " transform="matrix(1,0,0,-1,-66.097,774.669967)"/>
<path style="fill:none;stroke-width:0.4;stroke-linecap:butt;stroke-linejoin:round;stroke:rgb(0%,0%,0%);stroke-opacity:1;stroke-miterlimit:10;" d="M 260.304031 431.998092 L 232.589188 383.998092 L 288.014969 383.998092 Z M 260.304031 431.998092 " transform="matrix(1,0,0,-1,-66.097,774.669967)"/>
<path style="fill:none;stroke-width:0.4;stroke-linecap:butt;stroke-linejoin:round;stroke:rgb(0%,0%,0%);stroke-opacity:1;stroke-miterlimit:10;" d="M 398.847 575.998092 L 287.995438 383.998092 L 509.698563 383.998092 Z M 398.847 575.998092 " transform="matrix(1,0,0,-1,-66.097,774.669967)"/>
<path style="fill:none;stroke-width:0.4;stroke-linecap:butt;stroke-linejoin:round;stroke:rgb(0%,0%,0%);stroke-opacity:1;stroke-miterlimit:10;" d="M 398.847 575.998092 L 343.421219 479.998092 L 454.272781 479.998092 Z M 398.847 575.998092 " transform="matrix(1,0,0,-1,-66.097,774.669967)"/>
<path style="fill:none;stroke-width:0.4;stroke-linecap:butt;stroke-linejoin:round;stroke:rgb(0%,0%,0%);stroke-opacity:1;stroke-miterlimit:10;" d="M 343.425125 479.998092 L 287.999344 383.998092 L 398.850906 383.998092 Z M 343.425125 479.998092 " transform="matrix(1,0,0,-1,-66.097,774.669967)"/>
<path style="fill:none;stroke-width:0.4;stroke-linecap:butt;stroke-linejoin:round;stroke:rgb(0%,0%,0%);stroke-opacity:1;stroke-miterlimit:10;" d="M 454.272781 479.998092 L 398.847 383.998092 L 509.698563 383.998092 Z M 454.272781 479.998092 " transform="matrix(1,0,0,-1,-66.097,774.669967)"/>
<path style="fill:none;stroke-width:0.4;stroke-linecap:butt;stroke-linejoin:round;stroke:rgb(0%,0%,0%);stroke-opacity:1;stroke-miterlimit:10;" d="M 398.847 575.998092 L 343.421219 479.998092 L 454.272781 479.998092 Z M 398.847 575.998092 " transform="matrix(1,0,0,-1,-66.097,774.669967)"/>
<path style="fill:none;stroke-width:0.4;stroke-linecap:butt;stroke-linejoin:round;stroke:rgb(0%,0%,0%);stroke-opacity:1;stroke-miterlimit:10;" d="M 398.847 575.998092 L 371.136063 527.998092 L 426.561844 527.998092 Z M 398.847 575.998092 " transform="matrix(1,0,0,-1,-66.097,774.669967)"/>
<path style="fill:none;stroke-width:0.4;stroke-linecap:butt;stroke-linejoin:round;stroke:rgb(0%,0%,0%);stroke-opacity:1;stroke-miterlimit:10;" d="M 371.151688 527.998092 L 343.44075 479.998092 L 398.866531 479.998092 Z M 371.151688 527.998092 " transform="matrix(1,0,0,-1,-66.097,774.669967)"/>
<path style="fill:none;stroke-width:0.4;stroke-linecap:butt;stroke-linejoin:round;stroke:rgb(0%,0%,0%);stroke-opacity:1;stroke-miterlimit:10;" d="M 426.561844 527.998092 L 398.847 479.998092 L 454.272781 479.998092 Z M 426.561844 527.998092 " transform="matrix(1,0,0,-1,-66.097,774.669967)"/>
<path style="fill:none;stroke-width:0.4;stroke-linecap:butt;stroke-linejoin:round;stroke:rgb(0%,0%,0%);stroke-opacity:1;stroke-miterlimit:10;" d="M 343.425125 479.998092 L 287.999344 383.998092 L 398.850906 383.998092 Z M 343.425125 479.998092 " transform="matrix(1,0,0,-1,-66.097,774.669967)"/>
<path style="fill:none;stroke-width:0.4;stroke-linecap:butt;stroke-linejoin:round;stroke:rgb(0%,0%,0%);stroke-opacity:1;stroke-miterlimit:10;" d="M 343.425125 479.998092 L 315.710281 431.998092 L 371.136063 431.998092 Z M 343.425125 479.998092 " transform="matrix(1,0,0,-1,-66.097,774.669967)"/>
<path style="fill:none;stroke-width:0.4;stroke-linecap:butt;stroke-linejoin:round;stroke:rgb(0%,0%,0%);stroke-opacity:1;stroke-miterlimit:10;" d="M 315.710281 431.998092 L 287.999344 383.998092 L 343.425125 383.998092 Z M 315.710281 431.998092 " transform="matrix(1,0,0,-1,-66.097,774.669967)"/>
<path style="fill:none;stroke-width:0.4;stroke-linecap:butt;stroke-linejoin:round;stroke:rgb(0%,0%,0%);stroke-opacity:1;stroke-miterlimit:10;" d="M 371.151688 431.998092 L 343.44075 383.998092 L 398.866531 383.998092 Z M 371.151688 431.998092 " transform="matrix(1,0,0,-1,-66.097,774.669967)"/>
<path style="fill:none;stroke-width:0.4;stroke-linecap:butt;stroke-linejoin:round;stroke:rgb(0%,0%,0%);stroke-opacity:1;stroke-miterlimit:10;" d="M 454.272781 479.998092 L 398.847 383.998092 L 509.698563 383.998092 Z M 454.272781 479.998092 " transform="matrix(1,0,0,-1,-66.097,774.669967)"/>
<path style="fill:none;stroke-width:0.4;stroke-linecap:butt;stroke-linejoin:round;stroke:rgb(0%,0%,0%);stroke-opacity:1;stroke-miterlimit:10;" d="M 454.272781 479.998092 L 426.557938 431.998092 L 481.983719 431.998092 Z M 454.272781 479.998092 " transform="matrix(1,0,0,-1,-66.097,774.669967)"/>
<path style="fill:none;stroke-width:0.4;stroke-linecap:butt;stroke-linejoin:round;stroke:rgb(0%,0%,0%);stroke-opacity:1;stroke-miterlimit:10;" d="M 426.561844 431.998092 L 398.847 383.998092 L 454.272781 383.998092 Z M 426.561844 431.998092 " transform="matrix(1,0,0,-1,-66.097,774.669967)"/>
<path style="fill:none;stroke-width:0.4;stroke-linecap:butt;stroke-linejoin:round;stroke:rgb(0%,0%,0%);stroke-opacity:1;stroke-miterlimit:10;" d="M 481.999344 431.998092 L 454.288406 383.998092 L 509.714188 383.998092 Z M 481.999344 431.998092 " transform="matrix(1,0,0,-1,-66.097,774.669967)"/>
<path style="fill:none;stroke-width:2;stroke-linecap:butt;stroke-linejoin:round;stroke:rgb(0%,0%,100%);stroke-opacity:1;stroke-miterlimit:10;" d="M 249.1595 758.423873 L 204.319656 680.759811 " transform="matrix(1,0,0,-1,-66.097,774.669967)"/>
<path style="fill-rule:evenodd;fill:rgb(0%,0%,100%);fill-opacity:1;stroke-width:2;stroke-linecap:butt;stroke-linejoin:round;stroke:rgb(0%,0%,100%);stroke-opacity:1;stroke-miterlimit:10;" d="M 204.319656 680.759811 L 209.839188 685.658248 L 205.800125 687.986373 Z M 204.319656 680.759811 " transform="matrix(1,0,0,-1,-66.097,774.669967)"/>
<path style="fill:none;stroke-width:2;stroke-linecap:butt;stroke-linejoin:round;stroke:rgb(66.3%,66.3%,66.3%);stroke-opacity:1;stroke-dasharray:1,3;stroke-miterlimit:10;" d="M 287.991531 736.005905 L 249.1595 758.423873 " transform="matrix(1,0,0,-1,-66.097,774.669967)"/>
<path style="fill:none;stroke-width:2;stroke-linecap:butt;stroke-linejoin:round;stroke:rgb(66.3%,66.3%,66.3%);stroke-opacity:1;stroke-dasharray:1,3;stroke-miterlimit:10;" d="M 243.182938 658.341842 L 204.350906 680.759811 " transform="matrix(1,0,0,-1,-66.097,774.669967)"/>
<path style="fill:none;stroke-width:2;stroke-linecap:butt;stroke-linejoin:round;stroke:rgb(0%,0%,100%);stroke-opacity:1;stroke-miterlimit:10;" d="M 287.991531 735.998092 L 287.991531 514.294967 " transform="matrix(1,0,0,-1,-66.097,774.669967)"/>
<path style="fill-rule:evenodd;fill:rgb(0%,0%,100%);fill-opacity:1;stroke-width:2;stroke-linecap:butt;stroke-linejoin:round;stroke:rgb(0%,0%,100%);stroke-opacity:1;stroke-miterlimit:10;" d="M 287.991531 514.294967 L 290.323563 521.294967 L 285.663406 521.294967 Z M 287.991531 514.294967 " transform="matrix(1,0,0,-1,-66.097,774.669967)"/>
<path style="fill:none;stroke-width:2;stroke-linecap:butt;stroke-linejoin:round;stroke:rgb(0%,0%,100%);stroke-opacity:1;stroke-miterlimit:10;" d="M 222.757156 773.666061 L 72.108719 512.74028 " transform="matrix(1,0,0,-1,-66.097,774.669967)"/>
<path style="fill-rule:evenodd;fill:rgb(0%,0%,100%);fill-opacity:1;stroke-width:2;stroke-linecap:butt;stroke-linejoin:round;stroke:rgb(0%,0%,100%);stroke-opacity:1;stroke-miterlimit:10;" d="M 72.108719 512.74028 L 77.62825 517.634811 L 73.593094 519.966842 Z M 72.108719 512.74028 " transform="matrix(1,0,0,-1,-66.097,774.669967)"/>
<path style="fill:none;stroke-width:2;stroke-linecap:butt;stroke-linejoin:round;stroke:rgb(66.3%,66.3%,66.3%);stroke-opacity:1;stroke-dasharray:1,3;stroke-miterlimit:10;" d="M 287.991531 736.009811 L 222.757156 773.669967 " transform="matrix(1,0,0,-1,-66.097,774.669967)"/>
<path style="fill:none;stroke-width:2;stroke-linecap:butt;stroke-linejoin:round;stroke:rgb(66.3%,66.3%,66.3%);stroke-opacity:1;stroke-dasharray:1,3;stroke-miterlimit:10;" d="M 137.343094 475.080123 L 72.108719 512.744186 " transform="matrix(1,0,0,-1,-66.097,774.669967)"/>
<path style="fill:none;stroke-width:2;stroke-linecap:butt;stroke-linejoin:round;stroke:rgb(0%,0%,100%);stroke-opacity:1;stroke-miterlimit:10;" d="M 344.870438 768.841842 L 476.229813 541.318405 " transform="matrix(1,0,0,-1,-66.097,774.669967)"/>
<path style="fill-rule:evenodd;fill:rgb(0%,0%,100%);fill-opacity:1;stroke-width:2;stroke-linecap:butt;stroke-linejoin:round;stroke:rgb(0%,0%,100%);stroke-opacity:1;stroke-miterlimit:10;" d="M 476.229813 541.318405 L 474.749344 548.548873 L 470.710281 546.216842 Z M 476.229813 541.318405 " transform="matrix(1,0,0,-1,-66.097,774.669967)"/>
<path style="fill:none;stroke-width:2;stroke-linecap:butt;stroke-linejoin:round;stroke:rgb(66.3%,66.3%,66.3%);stroke-opacity:1;stroke-dasharray:1,3;stroke-miterlimit:10;" d="M 287.991531 735.998092 L 344.870438 768.841842 " transform="matrix(1,0,0,-1,-66.097,774.669967)"/>
<path style="fill:none;stroke-width:2;stroke-linecap:butt;stroke-linejoin:round;stroke:rgb(66.3%,66.3%,66.3%);stroke-opacity:1;stroke-dasharray:1,3;stroke-miterlimit:10;" d="M 419.350906 508.486373 L 476.229813 541.326217 " transform="matrix(1,0,0,-1,-66.097,774.669967)"/>
</g>
</svg>
